# AST/ASF file generated using VICON BodyLanguage
# -----------------------------------------------
:version 1.10
:name VICON
:units
  mass 1.0
  length 0.45
  angle deg
:documentation
   .ast/.asf automatically generated from VICON data using
   VICON BodyBuilder and BodyLanguage model FoxedUp or BRILLIANT.MOD
:root
   order TX TY TZ RX RY RZ
   axis XYZ
   position 0 0 0  
   orientation 0 0 0 
:bonedata
  begin
     id 1 
     name lhipjoint
     direction 0.606768 -0.715223 0.346827 
     length 2.41543 
     axis 0 0 0  XYZ
  end
  begin
     id 2 
     name lfemur
     direction 0.34202 -0.939693 0  
     length 7.2778  
     axis 0 0 20  XYZ
    dof rx ry rz
    limits (-160.0 20.0)
           (-70.0 70.0)
           (-60.0 70.0)
  end
  begin
     id 3 
     name ltibia
     direction 0.34202 -0.939693 0   
     length 7.61811   
     axis 0 0 20   XYZ
    dof rx
    limits (-10.0 170.0)
  end
  begin
     id 4 
     name lfoot
     direction 0.0823924 -0.226371 0.97055   
     length 2.33618   
     axis -90 7.62852e-016 20   XYZ
    dof rx rz
    limits (-45.0 90.0)
           (-70.0 20.0)
  end
  begin
     id 5 
     name ltoes
     direction 1.53554e-011 -4.21934e-011 1   
     length 1.17015   
     axis -90 7.62852e-016 20   XYZ
    dof rx
    limits (-90.0 20.0)
  end
  begin
     id 6 
     name rhipjoint
     direction -0.6077 -0.714582 0.346516   
     length 2.4176  
     axis 0 0 0  XYZ 
  end
  begin
     id 7 
     name rfemur
     direction -0.34202 -0.939693 0   
     length 7.28127   
     axis 0 0 -20   XYZ
    dof rx ry rz
    limits (-160.0 20.0)
           (-70.0 70.0)
           (-70.0 60.0)
  end
  begin
     id 8 
     name rtibia
     direction -0.34202 -0.939693 0   
     length 7.77648   
     axis 0 0 -20   XYZ
    dof rx
    limits (-10.0 170.0)
 end
 begin
     id 9 
     name rfoot
     direction -0.0809463 -0.222398 0.97159   
     length 2.37533  
     axis -90 -7.62852e-016 -20   XYZ
    dof rx rz
    limits (-45.0 90.0)
           (-20.0 70.0)
  end
  begin
     id 10 
     name rtoes
     direction -1.53568e-011 -4.21714e-011 1   
     length 1.18972   
     axis -90 -7.62852e-016 -20   XYZ
    dof rx
    limits (-90.0 20.0)
  end
  begin
     id 11 
     name lowerback
     direction 0.010968 0.991932 -0.126297   
     length 2.21698   
     axis 0 0 0   XYZ
    dof rx ry rz
    limits (-20.0 45.0)
           (-30.0 30.0)
           (-30.0 30.0)
  end
  begin
     id 12 
     name upperback
     direction 0.0167007 0.997503 -0.0686276   
     length 2.22371   
     axis 0 0 0   XYZ
    dof rx ry rz
    limits (-20.0 45.0)
           (-30.0 30.0)
           (-30.0 30.0)
  end
  begin
     id 13 
     name thorax
     direction 0.0111721 0.999885 -0.0102878   
     length 2.25242   
     axis 0 0 0   XYZ
    dof rx ry rz
    limits (-20.0 45.0)
           (-30.0 30.0)
           (-30.0 30.0)
  end
  begin
     id 14 
     name lowerneck
     direction -0.0120265 0.990428 0.137508   
     length 1.57674   
     axis 0 0 0   XYZ
    dof rx ry rz
    limits (-20.0 45.0)
           (-30.0 30.0)
           (-30.0 30.0)
  end
  begin
     id 15 
     name upperneck
     direction 0.0175669 0.998907 0.0433089   
     length 1.5618   
     axis 0 0 0   XYZ
    dof rx ry rz
    limits (-20.0 45.0)
           (-30.0 30.0)
           (-30.0 30.0)
  end
  begin
     id 16
     name head
     direction 0.00754609 0.99997 0.00185367  
     length 1.60579  
     axis 0 0 0   XYZ
    dof rx ry rz
    limits (-20.0 45.0)
           (-30.0 30.0)
           (-30.0 30.0)
  end
  begin
     id 17 
     name lclavicle
     direction 0.885866 0.429166 -0.176231  
     length 3.44967  
     axis 0 0 0   XYZ
    dof ry rz
    limits (-20.0 10.0)
           (0.0 20.0)
  end
  begin
     id 18 
     name lhumerus
     direction 1 -4.48973e-011 -1.90255e-027   
     length 5.20607   
     axis 180 -30 -90   XYZ
    dof rx ry rz
    limits (-60.0 90.0)
           (-90.0 90.0)
           (-90.0 90.0)
  end
  begin
     id 19
     name lradius
     direction 1 -4.48956e-011 9.87925e-027   
     length 3.39961   
     axis 180 -30 -90   XYZ
    dof rx
    limits (-10.0 170.0)
  end
  begin
     id 20
     name lwrist
     direction 1 -4.48985e-011 1.73247e-026   
     length 1.6998   
     axis -9.60847e-015 90 90   XYZ
    dof ry
    limits (-180.0 0.0)
 end
  begin
     id 21 
     name lhand
     direction 1 -4.48798e-011 3.46119e-026   
     length 0.519693   
     axis -2.21073e-014 90 90   XYZ
    dof rx rz
    limits (-90.0 90.0)
           (-45.0 45.0)
  end
  begin
     id 22 
     name lfingers
     direction 1 -4.48938e-011 6.92797e-026   
     length 0.41899   
     axis -4.42155e-014 90 90   XYZ
    dof rx
    limits (0.0 90.0)
  end
  begin
     id 23
     name lthumb
     direction 0.707107 -6.34952e-011 0.707107   
     length 0.601588   
     axis -90 45 6.0103e-014   XYZ
    dof rx rz
    limits (-45.0 45.0)
           (-45.0 45.0)
  end
  begin
     id 24 
     name rclavicle
     direction -0.866736 0.456792 -0.200276   
     length 3.45032  
     axis 0 0 0   XYZ 
    dof ry rz
    limits (-10.0 20.0)
           (-20.0 0.0)
  end
  begin
     id 25 
     name rhumerus
     direction -1 -4.4897e-011 8.65094e-028  
     length 5.32214   
     axis 180 30 90   XYZ
    dof rx ry rz
    limits (-90.0 60.0)
           (-90.0 90.0)
           (-90.0 90.0)
  end
  begin
     id 26 
     name rradius
     direction -1 -4.48987e-011 1.08427e-026   
     length 3.51208   
     axis 180 30 90   XYZ
    dof rx
    limits (-10.0 170.0)
  end
  begin
     id 27 
     name rwrist
     direction -1 -4.48961e-011 1.73222e-026   
     length 1.75604   
     axis -9.60847e-015 -90 -90   XYZ
    dof ry
    limits (-180.0 0.0)
  end
  begin
     id 28
     name rhand
     direction -1 -4.48895e-011 3.46314e-026   
     length 0.586681   
     axis -2.21073e-014 -90 -90   XYZ
    dof rx rz
    limits (-90.0 90.0)
           (-45.0 45.0)
  end
  begin
     id 29
     name rfingers
     direction -1 -4.48968e-011 6.92916e-026   
     length 0.472997   
     axis -4.42155e-014 -90 -90   XYZ
    dof rx
    limits (0.0 90.0)
  end
  begin
     id 30
     name rthumb
     direction -0.707107 -6.34848e-011 0.707107   
     length 0.679133   
     axis -90 -45 -6.0103e-014   XYZ
    dof rx rz
    limits (-45.0 45.0)
           (-45.0 45.0)
  end
:hierarchy
  begin
    root lhipjoint rhipjoint lowerback
    lhipjoint lfemur
    lfemur ltibia
    ltibia lfoot
    lfoot ltoes
    rhipjoint rfemur
    rfemur rtibia
    rtibia rfoot
    rfoot rtoes
    lowerback upperback
    upperback thorax
    thorax lowerneck lclavicle rclavicle
    lowerneck upperneck
    upperneck head
    lclavicle lhumerus
    lhumerus lradius
    lradius lwrist
    lwrist lhand lthumb
    lhand lfingers
    rclavicle rhumerus
    rhumerus rradius
    rradius rwrist
    rwrist rhand rthumb
    rhand rfingers
  end

#!OML:ASF H:\Dans Jumps\Project 1\Capture day 1\Session 1\subject.ASF
:FULLY-SPECIFIED
:DEGREES
23
root 0.00301618 17.6725 -13.6468 5.24173 -0.286849 -1.17431
lowerback -5.78461 -0.51323 -0.840031
upperback 2.27247 -0.689221 1.3321
thorax 5.6356 -0.397095 1.78425
lowerneck -13.5286 0.032154 -2.46439
upperneck 12.5642 -0.322377 5.632
head 6.04169 0.173722 2.16607
rclavicle 3.95085e-015 1.0138e-014
rhumerus -23.1893 -12.038 -85.2353
rradius 24.5874
rwrist 32.5445
rhand -18.296 -26.7205
rfingers 7.12502
rthumb 7.98468 -56.5497
lclavicle 3.95085e-015 1.0138e-014
lhumerus -19.084 4.17241 84.3632
lradius 17.1007
lwrist -3.78642
lhand -25.1387 -1.28402
lfingers 7.12502
lthumb 1.37762 28.6913
rfemur -8.76377 -5.22177 20.3755
rtibia 18.3971
rfoot -13.6135 -5.1277
rtoes 15.8622
lfemur -5.09655 6.53851 -16.4697
ltibia 11.6046
lfoot -8.43361 7.45497
ltoes 4.28519
24
root 0.0133703 17.6724 -13.6422 5.24427 -0.304982 -1.18045
lowerback -5.78917 -0.500765 -0.838585
upperback 2.27179 -0.672503 1.32913
thorax 5.63678 -0.388723 1.7821
lowerneck -13.5203 0.0175639 -2.47565
upperneck 12.5505 -0.343336 5.65758
head 6.03694 0.1648 2.17401
rclavicle 6.93262e-015 -4.17448e-015
rhumerus -23.1793 -11.6997 -85.4532
rradius 24.7181
rwrist 32.3668
rhand -18.2648 -26.7076
rfingers 7.12502
rthumb 8.01474 -56.5357
lclavicle 6.93262e-015 -4.17448e-015
lhumerus -19.148 4.2126 84.4477
lradius 17.0732
lwrist -3.81565
lhand -25.0512 -1.07671
lfingers 7.12502
lthumb 1.46214 28.898
rfemur -8.74245 -5.18047 20.345
rtibia 18.3815
rfoot -13.6146 -5.16834
rtoes 15.8151
lfemur -5.09164 6.54713 -16.5013
ltibia 11.6263
lfoot -8.462 7.46869
ltoes 4.30824
25
root 0.023623 17.6723 -13.6378 5.24675 -0.319903 -1.1872
lowerback -5.79342 -0.489685 -0.834976
upperback 2.27249 -0.657815 1.32605
thorax 5.63929 -0.381292 1.7784
lowerneck -13.5189 0.00524363 -2.47893
upperneck 12.5376 -0.361517 5.67501
head 6.03347 0.157067 2.17834
rclavicle -3.65267e-015 7.15625e-015
rhumerus -23.1701 -11.3594 -85.6661
rradius 24.8572
rwrist 32.18
rhand -18.2492 -26.6637
rfingers 7.12502
rthumb 8.02981 -56.4912
lclavicle -3.65267e-015 7.15625e-015
lhumerus -19.2115 4.24233 84.5437
lradius 17.0451
lwrist -3.84433
lhand -25.0277 -1.039
lfingers 7.12502
lthumb 1.48477 28.9356
rfemur -8.72122 -5.14311 20.3158
rtibia 18.365
rfoot -13.6142 -5.20705
rtoes 15.769
lfemur -5.08992 6.55854 -16.5316
ltibia 11.6509
lfoot -8.49132 7.4765
ltoes 4.32727
26
root 0.0338469 17.6722 -13.6335 5.25032 -0.333353 -1.19409
lowerback -5.79982 -0.48072 -0.830781
upperback 2.27587 -0.646108 1.32462
thorax 5.64598 -0.37539 1.77578
lowerneck -13.5309 -0.00124653 -2.4736
upperneck 12.5266 -0.371433 5.67932
head 6.03249 0.152922 2.17791
rclavicle -4.64659e-015 -2.38542e-015
rhumerus -23.1592 -11.0192 -85.8696
rradius 25.0032
rwrist 31.9922
rhand -18.2252 -26.6078
rfingers 7.12502
rthumb 8.05299 -56.4344
lclavicle -4.64659e-015 -2.38542e-015
lhumerus -19.2727 4.26012 84.6536
lradius 17.0188
lwrist -3.8659
lhand -25.0351 -1.09699
lfingers 7.12502
lthumb 1.47763 28.8776
rfemur -8.70205 -5.11516 20.287
rtibia 18.3488
rfoot -13.6122 -5.23802
rtoes 15.7122
lfemur -5.09141 6.57283 -16.5614
ltibia 11.678
lfoot -8.52068 7.48006
ltoes 4.34412
